<svg xmlns="http://www.w3.org/2000/svg" width="256" height="256"><path fill="#1976D2" fill-opacity=".016" fill-rule="evenodd" d="M0 128.004v128.004l128.25-.254 128.25-.254.254-127.75L257.008 0H0zm.485.496c0 70.4.119 99.053.265 63.672s.146-92.98 0-128S.485 58.1.485 128.5"/><path fill="#1976D2" fill-opacity=".49" fill-rule="evenodd" d="M227 16.958a4976 4976 0 0 1-29 16.006c-41.559 22.699-38.528 20.843-35.904 21.986 1.322.576 7.791 3.258 14.374 5.959 6.584 2.702 12.101 5.303 12.26 5.781.266.798-2.423 6.093-19.963 39.31-33.074 62.634-36.819 69.329-47.888 85.602-16.672 24.511-34.466 41.348-50.705 47.979l-5.326 2.175 2.835 2.018c4.28 3.048 10.781 4.425 20.789 4.402 24.861-.057 47.944-13.262 68.478-39.176 14.58-18.401 22.944-32.497 49.734-83.823 10.816-20.723 19.789-37.842 19.941-38.044s5.987 3.766 12.967 8.816l12.693 9.183-.604-7.816c-.664-8.603-4.729-51.336-5.262-55.316-.184-1.375-.555-4.975-.824-8a930 930 0 0 0-1.059-11 381 381 0 0 1-.874-9.738c-.167-2.33-.497-4.394-.733-4.587S235.525 12.21 227 16.958M36 50.687c-5.775 9.719-10.65 18.041-10.833 18.492-.184.452 12.301.821 27.744.821h28.077l.256 78.145.256 78.145 6.5-5.558c7.17-6.13 14.266-14.371 23.73-27.553l6.23-8.679.02-57.25L118 70h7.607c6.852 0 7.536.174 6.888 1.75-3.792 9.227-4.716 26.291-1.987 36.675.857 3.259 2.781 8.175 4.275 10.925 2.802 5.158 10.678 14.536 11.463 13.65.244-.275 4.788-8.701 10.099-18.724 7.807-14.737 9.659-19.043 9.677-22.5.037-7.185 3.787-13.47 11.478-19.238 1.725-1.294 1.794-1.637.5-2.498-1.497-.996-19.095-9.061-28.42-13.023-5.871-2.496-7.089-1.363 13.92-12.95 8.25-4.55 15.659-8.902 16.464-9.67 1.255-1.197-8.214-1.396-66-1.389l-67.464.008zm173.956 87.063c-2.87 5.363-6.727 12.482-8.572 15.821l-3.355 6.07 6.093 3.428c11.421 6.423 15.615 13.697 14.576 25.274-1.051 11.692-9.169 19.416-22.698 21.595-3.575.576-11.695 1.05-18.045 1.054l-11.544.008-3.715 4.871c-5.38 7.056-19.222 20.022-26.307 24.643l-8 5.22c-1.512.988 5.898 1.178 37.111.951 37.535-.272 39.263-.369 46-2.572 21.551-7.049 36.696-22.766 41.985-43.573 1.966-7.735 1.98-25.334.026-32.837-3.762-14.444-13.397-26.505-27.99-35.038-4.389-2.566-8.512-4.665-9.164-4.665s-3.532 4.387-6.401 9.75"/><path fill="#1976D2" fill-opacity=".375" fill-rule="evenodd" d="M44.471 37.056c-.869 1.681-5.381 9.399-10.026 17.151S26 68.684 26 69.151 38.628 70 54.063 70h28.062l-.312 77.5c-.172 42.625-.021 77.5.336 77.5.356 0 4.019-3.148 8.139-6.996 6.507-6.076 16.653-18.366 24.771-30.004l2.441-3.5.5-57.5.5-57.5 7.5.144c5.791.111 7.411.453 7.108 1.5-5.753 19.922-5.221 33.343 1.878 47.329 2.873 5.659 10.388 14.565 11.361 13.462.21-.239 4.381-8.085 9.268-17.435 7.52-14.389 8.989-17.979 9.565-23.376.754-7.076 4.787-14.247 9.964-17.714 1.567-1.051 2.852-2.173 2.853-2.495.003-.603-15.347-7.653-27.247-12.513-3.713-1.516-6.75-3.056-6.75-3.422 0-.365 7.763-5.075 17.25-10.466s17.437-9.962 17.667-10.158c.229-.196-29.572-.356-66.225-.356H46.051zM176 46c-.901.582-1.025.975-.309.985.655.008 1.469-.435 1.809-.985.767-1.242.421-1.242-1.5 0m-11.069 6.051c-3.088 1.612-3.231 1.864-1.431 2.518 1.1.399 3.517 1.335 5.372 2.079 4.273 1.713 3.824 1.841 5.599-1.591 1.124-2.174 1.218-3.131.361-3.661-2.257-1.395-6.511-1.113-9.901.655m15.97 9.515c1.871.805 3.634 1.233 3.917.949.283-.283-.036-.515-.71-.515s-1.018-.337-.764-.75c.253-.413-.958-.84-2.691-.95l-3.153-.199zm4.663 14.141c-.542 1.425-.428 1.54.56.56.684-.679.991-1.486.683-1.793-.308-.308-.867.247-1.243 1.233m-6.436 12.357c-1.833 3.335-3.069 6.328-2.746 6.651s-.04 1.082-.806 1.686c-1.224.965-8.03 13.338-27.56 50.099-12.844 24.176-18.991 34.401-30.092 50.055-14.678 20.698-35.908 39.963-48.047 43.6-2.133.639-3.877 1.485-3.877 1.88 0 1.731 10.559 5.07 17.76 5.615 14.533 1.101 33.135-4.289 46.474-13.467 6.673-4.591 19.075-16.524 25.509-24.543 12.588-15.691 31.715-47.283 30.517-50.405-.412-1.073-.21-1.322.644-.794.964.595.957.309-.032-1.275-1.045-1.673-1.022-2.518.13-4.669 1.215-2.271 1.208-2.764-.048-3.638-.995-.692-1.093-1.16-.31-1.483 1.252-.516.631-4.376-.703-4.376-.454 0-.657-.879-.45-1.954.236-1.226-.293-2.166-1.423-2.525-1.319-.418-1.707-1.365-1.453-3.546.246-2.116-.081-2.975-1.135-2.975-.814 0-1.48-.157-1.48-.349s3.169-6.955 7.042-15.028 6.795-15.077 6.494-15.565.017-1.115.708-1.394c.998-.402.999-.522.006-.585-.687-.043-1.25-.879-1.25-1.857 0-1.916-3.242-5.178-5.261-5.292-.682-.039-.339-.457.761-.93 1.915-.823 1.905-.862-.231-.93-1.515-.047-2.432-.872-2.858-2.57-.345-1.375-1.24-2.5-1.988-2.5-.798 0-1.122-.62-.785-1.5 1.257-3.275-.347-1.19-3.51 4.564M194.5 211.136c-2.75.496-10.001.618-16.114.271l-11.114-.63-2.836 3.862c-7.219 9.83-30.382 30.361-34.254 30.361-.585 0-1.344.453-1.687 1.008-.719 1.164 63.851.27 72.005-.997 2.979-.463 3.859-.824 2.179-.894-2.565-.106-2.679-.26-1.25-1.688 1.539-1.54 2.297-8.995.821-8.084-.412.255-.804-2.415-.87-5.932-.072-3.78-.685-7.091-1.5-8.096-.929-1.145-.971-1.455-.13-.95.688.413 1.25.297 1.25-.258s-.787-1.468-1.75-2.029c-1.563-.91-1.509-1.022.5-1.05 1.573-.021 2.25-.632 2.25-2.03 0-1.1-.562-2.007-1.25-2.015q-1.25-.016.25-.985c1.867-1.207.833-1.185-6.5.136"/><path fill="#1976D2" fill-opacity=".475" fill-rule="evenodd" d="M45.996 34.659c-.003.463-4.431 8.266-9.841 17.341L26.32 68.5l27.59.5 27.59.5.256 77.83.256 77.829 4.744-4.119c6.375-5.535 16.107-16.687 23.595-27.04l6.149-8.5.5-59 .5-59 4-.146 4-.145-4 .753c-3.231.609-2.462.754 4 .754 6.277 0 7.138-.154 4-.716-2.2-.394-3.325-.794-2.5-.89 1.333-.154 1.333-.309 0-1.394-2.064-1.68-5.085-7.298-4.331-8.052.34-.339-.134-.905-1.051-1.257-1.383-.531-1.45-.911-.394-2.216.957-1.181.967-1.39.041-.833-.924.555-1.073-.068-.591-2.476.55-2.751.397-3.123-1.056-2.566-1.059.407-1.639.187-1.54-.582.331-2.574-.133-3.602-1.828-4.045-1.667-.435-1.667-.463 0-.573 1.856-.123 2.499-2.116.683-2.116-.587 0-.823-.788-.523-1.75 1.444-4.64.82-4.729-35.873-5.091-18.995-.187-34.539.038-34.541.5m87.628 36.88c-.965 2.514-.681 3.163.498 1.136.584-1.004.851-2.036.593-2.293-.257-.258-.749.263-1.091 1.157M130.266 93.5c.018 6.05.257 9.65.53 8 .481-2.901.518-2.92 1.128-.574.347 1.334 1.294 2.645 2.104 2.912 1.257.416 1.273.246.104-1.17-.821-.995-1.101-2.559-.699-3.913 1.75-5.903 1.697-7.988-.257-10.109-1.087-1.18-2.194-3.046-2.46-4.146s-.469 2.95-.45 9m1.338 14.5c.668 3.902 3.957 12 4.875 12 .325 0 .112-.895-.474-1.99-.813-1.519-.677-2.582.575-4.492 1.023-1.562 1.349-3.163.866-4.26-.425-.967-.812-2.058-.86-2.425-.185-1.429-1.587-2.086-1.601-.75-.013 1.167-.187 1.152-.985-.083-.806-1.248-.984-1.164-1.055.5l-.086 2-.927-2c-.684-1.476-.77-1.083-.328 1.5m6.286 14.582c1.432 2.98 3.777 4.816 3.777 2.958 0-.786-.344-1.341-.763-1.234s-1.494-.706-2.389-1.806c-1.613-1.985-1.618-1.985-.625.082M135 171c-.589 1.1-.845 2-.57 2s.981-.9 1.57-2 .845-2 .57-2-.981.9-1.57 2m-4.041 7.076c-1.016 1.899-.934 1.981.965.965 1.142-.611 2.076-1.546 2.076-2.076 0-1.717-1.898-1.023-3.041 1.111m-4.486 6.968c-.325.526-.27 1.476.122 2.111.431.696.276.883-.391.471-.658-.406-3.102 2.263-6.038 6.596-6.181 9.12-19.574 24.583-27.136 31.33-6.548 5.842-19.186 13.979-23.28 14.987-3.635.896-3.469 1.892.64 3.842 6.342 3.009 17.59 3.901 27.54 2.184 10.613-1.831 20.383-5.249 19.427-6.796-.376-.608-.202-.791.398-.42 1.267.783 4.42-.256 3.804-1.254-.236-.382.488-1.268 1.61-1.969 1.366-.852 1.804-.891 1.326-.117-.407.657.6.476 2.332-.419 1.675-.867 3.386-2.141 3.802-2.833.574-.956.371-.946-.848.042-1.842 1.492-3.107.215-2.18-2.2.365-.952-.032-1.827-.997-2.198-.882-.338-1.604-1.043-1.604-1.567s.563-.667 1.25-.319.575.037-.25-.691c-2.307-2.037-1.8-5.006 1.6-9.357 9.62-12.309 10.339-13.495 9.542-15.746-.432-1.222-.638-4.021-.458-6.221.212-2.59.014-3.518-.56-2.632-.719 1.107-1.292.964-3.006-.75-1.818-1.818-1.879-2.118-.429-2.118 1.492 0 1.463-.209-.25-1.8-2.561-2.378-5.232-3.344-5.966-2.156m13.399 54.706c-1.243 1.586-1.208 1.621.378.378 1.666-1.307 2.195-2.128 1.372-2.128-.207 0-.995.787-1.75 1.75m-4.248 2.536c-1.659 1.213-1.651 1.285.142 1.285 1.045 0 1.901-.578 1.901-1.285s-.064-1.286-.143-1.286-.933.579-1.9 1.286m1.126 3.437c1.787.222 4.713.222 6.5 0 1.787-.221.325-.403-3.25-.403s-5.037.182-3.25.403"/></svg>